simulation
nRows=31
nColumns=15
endheader
time  TH_x TH_y TH_z SC_y  SC_z  SC_x  AC_y  AC_z  AC_x  GH_y  GH_z  GH_yy  EL_x  PS_y
1.700000  0.000000  0.000000  0.000000  -29.982748  1.129288  13.124553  67.883735  26.011884  0.277124  52.983330  58.412136  -51.427364  23.020021  0.000000
1.710000  0.000000  0.000000  0.000000  -29.989023  1.137118  13.095217  67.865133  26.030575  0.282627  52.935896  58.378036  -51.321838  23.019191  0.000000
1.720000  0.000000  0.000000  0.000000  -29.995016  1.144452  13.064217  67.844983  26.045754  0.286863  52.884771  58.338249  -51.208101  23.018869  0.000000
1.730000  0.000000  0.000000  0.000000  -30.000725  1.151289  13.031560  67.823286  26.057417  0.289829  52.829958  58.292783  -51.086175  23.019056  0.000000
1.740000  0.000000  0.000000  0.000000  -30.006148  1.157627  12.997252  67.800047  26.065558  0.291523  52.771458  58.241646  -50.956086  23.019751  0.000000
1.750000  0.000000  0.000000  0.000000  -30.011283  1.163464  12.961299  67.775266  26.070172  0.291943  52.709274  58.184847  -50.817860  23.020957  0.000000
1.760000  0.000000  0.000000  0.000000  -30.016131  1.168798  12.923710  67.748948  26.071256  0.291087  52.643409  58.122395  -50.671523  23.022674  0.000000
1.770000  0.000000  0.000000  0.000000  -30.020689  1.173629  12.884492  67.721096  26.068805  0.288954  52.573866  58.054301  -50.517106  23.024902  0.000000
1.780000  0.000000  0.000000  0.000000  -30.024956  1.177956  12.843652  67.691712  26.062819  0.285543  52.500649  57.980576  -50.354638  23.027642  0.000000
1.790000  0.000000  0.000000  0.000000  -30.028932  1.181776  12.801200  67.660800  26.053295  0.280853  52.423763  57.901233  -50.184149  23.030895  0.000000
1.800000  0.000000  0.000000  0.000000  -30.032615  1.185090  12.757143  67.628366  26.040232  0.274883  52.343212  57.816285  -50.005674  23.034660  0.000000
1.810000  0.000000  0.000000  0.000000  -30.036004  1.187897  12.711491  67.594411  26.023631  0.267634  52.259003  57.725746  -49.819245  23.038938  0.000000
1.820000  0.000000  0.000000  0.000000  -30.039100  1.190196  12.664254  67.558942  26.003493  0.259105  52.171140  57.629632  -49.624897  23.043729  0.000000
1.830000  0.000000  0.000000  0.000000  -30.041900  1.191987  12.615440  67.521962  25.979818  0.249297  52.079631  57.527959  -49.422668  23.049033  0.000000
1.840000  0.000000  0.000000  0.000000  -30.044406  1.193269  12.565061  67.483477  25.952610  0.238210  51.984482  57.420743  -49.212594  23.054849  0.000000
1.850000  0.000000  0.000000  0.000000  -30.046615  1.194042  12.513127  67.443491  25.921871  0.225845  51.885701  57.308002  -48.994715  23.061177  0.000000
1.860000  0.000000  0.000000  0.000000  -30.048529  1.194307  12.459647  67.402010  25.887606  0.212204  51.783296  57.189756  -48.769071  23.068017  0.000000
1.870000  0.000000  0.000000  0.000000  -30.050145  1.194062  12.404634  67.359040  25.849818  0.197288  51.677275  57.066025  -48.535703  23.075368  0.000000
1.880000  0.000000  0.000000  0.000000  -30.051465  1.193309  12.348100  67.314585  25.808514  0.181098  51.567647  56.936827  -48.294655  23.083230  0.000000
1.890000  0.000000  0.000000  0.000000  -30.052488  1.192047  12.290055  67.268653  25.763700  0.163638  51.454422  56.802186  -48.045971  23.091601  0.000000
1.900000  0.000000  0.000000  0.000000  -30.053215  1.190278  12.230512  67.221249  25.715382  0.144909  51.337609  56.662124  -47.789695  23.100482  0.000000
1.910000  0.000000  0.000000  0.000000  -30.053644  1.188001  12.169484  67.172380  25.663569  0.124915  51.217219  56.516664  -47.525875  23.109870  0.000000
1.920000  0.000000  0.000000  0.000000  -30.053776  1.185219  12.106983  67.122053  25.608269  0.103657  51.093263  56.365831  -47.254558  23.119765  0.000000
1.930000  0.000000  0.000000  0.000000  -30.053612  1.181930  12.043023  67.070274  25.549492  0.081140  50.965752  56.209650  -46.975794  23.130166  0.000000
1.940000  0.000000  0.000000  0.000000  -30.053151  1.178137  11.977618  67.017052  25.487246  0.057367  50.834698  56.048146  -46.689633  23.141071  0.000000
1.950000  0.000000  0.000000  0.000000  -30.052395  1.173841  11.910781  66.962392  25.421544  0.032342  50.700114  55.881347  -46.396128  23.152479  0.000000
1.960000  0.000000  0.000000  0.000000  -30.051343  1.169043  11.842526  66.906303  25.352398  0.006068  50.562012  55.709282  -46.095330  23.164387  0.000000
1.970000  0.000000  0.000000  0.000000  -30.049996  1.163744  11.772869  66.848794  25.279819  -0.021448  50.420406  55.531978  -45.787296  23.176796  0.000000
1.980000  0.000000  0.000000  0.000000  -30.048355  1.157946  11.701825  66.789871  25.203820  -0.050204  50.275310  55.349466  -45.472079  23.189702  0.000000
1.990000  0.000000  0.000000  0.000000  -30.046420  1.151651  11.629408  66.729543  25.124416  -0.080193  50.126738  55.161776  -45.149738  23.203103  0.000000
2.000000  0.000000  0.000000  0.000000  -30.044192  1.144861  11.555634  66.667820  25.041622  -0.111410  49.974705  54.968941  -44.820331  23.216998  0.000000
